<?xml version="1.0" standalone="no"?>
<!DOCTYPE svg PUBLIC "-//W3C//DTD SVG 20010904//EN"
 "http://www.w3.org/TR/2001/REC-SVG-20010904/DTD/svg10.dtd">
<svg version="1.0" xmlns="http://www.w3.org/2000/svg"
 width="575.000000pt" height="575.000000pt" viewBox="0 0 575.000000 575.000000"
 preserveAspectRatio="xMidYMid meet">
<metadata>
Created by potrace 1.11, written by Peter Selinger 2001-2013
</metadata>
<g transform="translate(0.000000,575.000000) scale(0.100000,-0.100000)"
fill="#000000" stroke="none">
<path d="M2356 5338 c-21 -134 -41 -246 -44 -249 -4 -4 -34 -14 -67 -23 -126
-36 -246 -83 -394 -157 l-155 -77 -198 144 c-109 79 -202 144 -206 144 -4 0
-157 -150 -340 -333 l-333 -333 123 -169 c68 -94 134 -185 147 -203 l23 -33
-76 -152 c-46 -92 -96 -213 -127 -307 -28 -85 -53 -156 -54 -158 -2 -2 -99
-19 -216 -37 -118 -19 -229 -37 -246 -40 l-33 -6 0 -474 0 -473 27 -6 c16 -3
126 -21 246 -40 121 -19 221 -37 223 -39 2 -2 16 -44 31 -93 37 -126 105 -291
169 -413 30 -57 53 -109 51 -116 -3 -6 -69 -99 -146 -205 l-142 -194 333 -333
c183 -183 336 -333 340 -333 5 0 98 65 208 145 l201 145 70 -41 c39 -22 116
-61 170 -85 101 -45 327 -124 353 -124 8 0 17 -3 19 -7 3 -5 22 -117 43 -251
l38 -242 477 0 476 0 28 178 c15 97 33 208 39 246 l11 68 100 30 c133 39 320
117 429 178 l88 50 200 -145 c109 -80 202 -145 206 -145 4 0 157 150 340 333
l333 333 -147 203 -146 202 65 127 c73 144 126 272 162 399 14 48 27 88 29 90
2 2 102 19 222 38 121 20 231 38 247 41 l27 6 0 473 0 474 -32 6 c-18 3 -129
21 -246 40 -118 18 -215 35 -218 37 -2 2 -15 43 -29 91 -37 129 -89 257 -163
399 l-65 127 147 202 148 202 -334 334 c-194 194 -338 331 -346 328 -7 -3
-100 -68 -206 -145 l-194 -140 -73 41 c-146 80 -348 162 -509 205 -39 11 -30
-24 -85 327 l-28 177 -477 0 -476 0 -38 -242z m774 -934 c610 -104 1099 -570
1231 -1174 65 -299 35 -621 -84 -909 l-30 -74 214 -208 214 -207 -94 -89
c-130 -122 -190 -166 -306 -223 -133 -66 -230 -91 -381 -97 -145 -7 -256 8
-367 47 l-79 28 -72 -25 c-283 -99 -628 -110 -914 -27 -244 70 -448 187 -633
362 -122 114 -219 247 -330 449 -11 20 -29 33 -60 42 -76 22 -221 96 -286 145
-74 56 -136 131 -172 206 -22 48 -26 68 -26 160 0 97 2 110 31 170 58 122 186
234 348 304 l78 34 25 74 c38 113 107 252 180 361 79 120 236 286 352 373 213
160 520 274 801 298 74 6 269 -5 360 -20z"/>
<path d="M2740 4264 c-320 -41 -580 -162 -802 -373 -180 -170 -302 -372 -371
-611 l-24 -84 -52 -18 c-331 -112 -471 -332 -331 -519 70 -94 225 -187 374
-226 l67 -18 50 -102 c179 -365 506 -630 900 -729 84 -21 137 -27 271 -31 227
-7 378 16 557 88 l73 29 62 -24 c125 -50 183 -60 331 -60 122 1 151 4 228 28
137 41 267 116 342 196 l30 32 -194 189 -195 188 52 108 c51 108 90 231 113
353 19 101 17 368 -4 474 -113 563 -531 983 -1088 1091 -82 16 -320 27 -389
19z m417 -278 c160 -44 271 -99 397 -195 377 -287 530 -791 378 -1241 -16 -47
-37 -101 -47 -119 l-17 -34 -111 109 c-62 60 -138 134 -170 164 l-57 54 -85
-84 c-47 -47 -85 -87 -85 -90 0 -3 157 -156 349 -340 192 -184 347 -338 343
-342 -17 -17 -134 -38 -212 -38 -185 0 -342 74 -461 217 -71 86 -117 202 -134
337 l-7 49 -108 -108 -108 -108 15 -51 c27 -89 122 -258 167 -295 26 -22 19
-28 -46 -44 -346 -86 -704 -9 -976 209 -219 175 -362 421 -407 699 -85 523
224 1041 730 1224 131 47 228 61 400 57 133 -3 176 -8 252 -30z"/>
<path d="M2216 3445 c-84 -30 -145 -119 -146 -213 0 -130 94 -224 225 -224
131 0 225 94 225 224 -1 157 -156 266 -304 213z"/>
</g>
</svg>
